<svg xmlns="http://www.w3.org/2000/svg" xmlns:xlink="http://www.w3.org/1999/xlink" viewBox="0,0,256,256" width="48px" height="48px" fill-rule="nonzero"><g fill="#ffffff" fill-rule="nonzero" stroke="none" stroke-width="1" stroke-linecap="butt" stroke-linejoin="miter" stroke-miterlimit="10" stroke-dasharray="" stroke-dashoffset="0" font-family="none" font-weight="none" font-size="none" text-anchor="none" style="mix-blend-mode: normal"><g transform="scale(5.33333,5.33333)"><path d="M18,5.06055c-9.35,0 -17,6.37961 -17,14.34961c0,4.56 2.43914,8.50039 6.36914,11.15039l-1.05859,3.82031c-0.25,0.89 0.73977,1.60938 1.50977,1.10938l4.11914,-2.70117c1.62,0.57 3.50039,0.89117 5.40039,0.95117c-0.22,-0.91 -0.33984,-1.85031 -0.33984,-2.82031c0,-7.63 7.18,-13.83984 16,-13.83984c0.61,0 1.19906,0.02984 1.78906,0.08984c-1.27,-6.89 -8.32906,-12.10938 -16.78906,-12.10938zM12,12c1.1,0 2,0.9 2,2c0,1.1 -0.9,2 -2,2c-1.1,0 -2,-0.9 -2,-2c0,-1.1 0.9,-2 2,-2zM24,12c1.1,0 2,0.9 2,2c0,1.1 -0.9,2 -2,2c-1.1,0 -2,-0.9 -2,-2c0,-1.1 0.9,-2 2,-2zM33,19.08008c-7.75,0 -14,5.26984 -14,11.83984c0,6.57 6.25,11.84961 14,11.84961c1.94,0 3.77086,-0.31938 5.38086,-0.85937l3.20898,1.82031c0.77,0.44 1.68922,-0.28063 1.44922,-1.14062l-0.7793,-2.83984c2.91,-2.15 4.74023,-5.27008 4.74023,-8.83008c0,-6.57 -6.25,-11.83984 -14,-11.83984zM28.5,26c0.8,0 1.5,0.7 1.5,1.5c0,0.8 -0.7,1.5 -1.5,1.5c-0.8,0 -1.5,-0.7 -1.5,-1.5c0,-0.8 0.7,-1.5 1.5,-1.5zM37.5,26c0.8,0 1.5,0.7 1.5,1.5c0,0.8 -0.7,1.5 -1.5,1.5c-0.8,0 -1.5,-0.7 -1.5,-1.5c0,-0.8 0.7,-1.5 1.5,-1.5z"></path></g></g></svg>